<svg width="541" height="532" viewBox="0 0 541 532" fill="none" xmlns="http://www.w3.org/2000/svg">
<path d="M539 266C539 411.772 418.82 530 270.5 530C122.18 530 2 411.772 2 266C2 120.228 122.18 2 270.5 2C418.82 2 539 120.228 539 266Z" stroke="#D7D7D7" stroke-width="4"/>
<path d="M500 266C500 385.21 398.902 482 274 482C149.098 482 48 385.21 48 266C48 146.79 149.098 50 274 50C398.902 50 500 146.79 500 266Z" stroke="#DBDBDB" stroke-width="4"/>
<path d="M462 268.5C462 370.9 376.76 454 271.5 454C166.24 454 81 370.9 81 268.5C81 166.1 166.24 83 271.5 83C376.76 83 462 166.1 462 268.5Z" stroke="#DADADA" stroke-width="4"/>
</svg>
